<svg width="71" height="71" viewBox="0 0 71 71" fill="none" xmlns="http://www.w3.org/2000/svg">
<g clip-path="url(#clip0)">
<path d="M35.4801 7.79825C36.2456 7.79825 36.8661 7.17763 36.8661 6.41232V1.38594C36.8661 0.620623 36.2456 0 35.4801 0C34.7147 0 34.0942 0.620623 34.0942 1.38594V6.41232C34.0942 7.17763 34.7148 7.79825 35.4801 7.79825Z" fill="#f0f4f5"/>
<path d="M13.946 15.9061C14.2167 16.1767 14.5713 16.3121 14.926 16.3121C15.2807 16.3121 15.6355 16.1767 15.906 15.9061C16.4472 15.3649 16.4472 14.4873 15.906 13.946L12.352 10.3919C11.8108 9.85083 10.9332 9.85083 10.3919 10.3919C9.85069 10.9331 9.85069 11.8107 10.3919 12.352L13.946 15.9061Z" fill="#f0f4f5"/>
<path d="M21.9103 23.8704C22.181 24.1409 22.5356 24.2764 22.8903 24.2764C23.2449 24.2764 23.5997 24.1409 23.8703 23.8704C24.4115 23.3292 24.4115 22.4516 23.8703 21.9103L20.316 18.356C19.7748 17.815 18.8973 17.815 18.3559 18.356C17.8147 18.8973 17.8147 19.7748 18.3559 20.3162L21.9103 23.8704Z" fill="#f0f4f5"/>
<path d="M6.41232 34.0942H1.38594C0.620484 34.0942 0 34.7148 0 35.4801C0 36.2455 0.620484 36.8661 1.38594 36.8661H6.41232C7.17777 36.8661 7.79825 36.2455 7.79825 35.4801C7.79825 34.7148 7.17777 34.0942 6.41232 34.0942V34.0942Z" fill="#f0f4f5"/>
<path d="M23.8702 47.0898C23.329 46.5488 22.4514 46.5488 21.9101 47.0898L18.3558 50.6441C17.8146 51.1853 17.8146 52.0628 18.3558 52.6042C18.6265 52.8747 18.9812 53.0101 19.3358 53.0101C19.6905 53.0101 20.0453 52.8747 20.3158 52.6042L23.8701 49.05C24.4116 48.5086 24.4116 47.631 23.8702 47.0898Z" fill="#f0f4f5"/>
<path d="M13.946 55.0541L10.3917 58.6083C9.85051 59.1495 9.85051 60.0271 10.3917 60.5684C10.6624 60.839 11.0171 60.9744 11.3717 60.9744C11.7264 60.9744 12.0812 60.839 12.3517 60.5684L15.9059 57.0142C16.4472 56.473 16.4472 55.5954 15.9059 55.0541C15.3649 54.5129 14.4873 54.5129 13.946 55.0541Z" fill="#f0f4f5"/>
<path d="M35.48 63.1619C34.7145 63.1619 34.0941 63.7825 34.0941 64.5478V69.5742C34.0941 70.3395 34.7145 70.9601 35.48 70.9601C36.2454 70.9601 36.8659 70.3395 36.8659 69.5742V64.5478C36.8659 63.7824 36.2454 63.1619 35.48 63.1619V63.1619Z" fill="#f0f4f5"/>
<path d="M49.05 47.0898C48.5087 46.5488 47.6312 46.5488 47.0898 47.0898C46.5486 47.631 46.5486 48.5086 47.0898 49.05L50.6441 52.6042C50.9147 52.8747 51.2694 53.0101 51.6241 53.0101C51.9787 53.0101 52.3335 52.8747 52.6041 52.6042C53.1453 52.063 53.1453 51.1854 52.6041 50.6441L49.05 47.0898Z" fill="#f0f4f5"/>
<path d="M57.0141 55.0541C56.4729 54.513 55.5953 54.513 55.0539 55.0541C54.5127 55.5953 54.5127 56.4729 55.0539 57.0142L58.6082 60.5684C58.8789 60.839 59.2335 60.9744 59.5882 60.9744C59.9428 60.9744 60.2976 60.839 60.5682 60.5684C61.1094 60.0272 61.1094 59.1497 60.5682 58.6083L57.0141 55.0541Z" fill="#f0f4f5"/>
<path d="M69.5741 34.0941H64.5477C63.7823 34.0941 63.1618 34.7147 63.1618 35.48C63.1618 36.2453 63.7823 36.8659 64.5477 36.8659H69.5741C70.3396 36.8659 70.9601 36.2453 70.9601 35.48C70.9601 34.7147 70.3396 34.0941 69.5741 34.0941V34.0941Z" fill="#f0f4f5"/>
<path d="M47.0898 23.8704C47.3605 24.1409 47.7152 24.2763 48.0698 24.2763C48.4245 24.2763 48.7793 24.1409 49.0498 23.8704L52.6041 20.3161C53.1453 19.7749 53.1453 18.8973 52.6041 18.356C52.0629 17.8149 51.1853 17.8149 50.6439 18.356L47.0898 21.9102C46.5486 22.4514 46.5486 23.329 47.0898 23.8704Z" fill="#f0f4f5"/>
<path d="M56.0341 16.312C56.3887 16.312 56.7435 16.1766 57.0141 15.9061L60.5683 12.3518C61.1095 11.8106 61.1095 10.9331 60.5683 10.3917C60.0271 9.85065 59.1495 9.85065 58.6082 10.3917L55.0539 13.946C54.5127 14.4872 54.5127 15.3647 55.0539 15.9061C55.3246 16.1766 55.6794 16.312 56.0341 16.312V16.312Z" fill="#f0f4f5"/>
<path d="M23.5393 10.2741L25.9137 16.0063C26.1348 16.5401 26.6508 16.8623 27.1947 16.8623C27.3714 16.8623 27.5512 16.8282 27.7246 16.7564C28.4318 16.4634 28.7676 15.6526 28.4746 14.9455L26.1003 9.21329C25.8074 8.50619 24.9965 8.17079 24.2895 8.46322C23.5823 8.75621 23.2463 9.56698 23.5393 10.2741Z" fill="#f0f4f5"/>
<path d="M22.4333 5.36857C22.588 5.36857 22.7453 5.34251 22.8994 5.28749C23.6203 5.02998 23.996 4.23695 23.7385 3.51612L23.7382 3.51515C23.4808 2.79447 22.6884 2.41915 21.967 2.67652C21.2462 2.93389 20.8707 3.72748 21.1281 4.4483C21.3304 5.01515 21.864 5.36857 22.4333 5.36857Z" fill="#f0f4f5"/>
<path d="M9.21342 26.1004L14.9457 28.4748C15.119 28.5466 15.2987 28.5807 15.4755 28.5807C16.0193 28.5807 16.5353 28.2584 16.7565 27.7247C17.0495 27.0175 16.7136 26.2068 16.0065 25.9138L10.2742 23.5395C9.56725 23.2472 8.75634 23.5826 8.46349 24.2895C8.17037 24.9966 8.50618 25.8073 9.21342 26.1004V26.1004Z" fill="#f0f4f5"/>
<path d="M3.40136 23.6918C3.58943 23.7785 3.78693 23.8197 3.98124 23.8197C4.50512 23.8197 5.00655 23.521 5.2405 23.0141C5.56121 22.319 5.25782 21.4956 4.56291 21.1748L4.56208 21.1744C3.86704 20.8537 3.04407 21.1572 2.72336 21.8522C2.40265 22.5473 2.70631 23.3709 3.40136 23.6918V23.6918Z" fill="#f0f4f5"/>
<path d="M3.40136 47.2685L3.40052 47.2689C2.70548 47.5896 2.40251 48.413 2.72336 49.108C2.9573 49.6149 3.45887 49.9134 3.98276 49.9134C4.1772 49.9134 4.37484 49.8722 4.56291 49.7855C5.25796 49.4648 5.56134 48.6412 5.2405 47.9462C4.91979 47.251 4.09613 46.9476 3.40136 47.2685V47.2685Z" fill="#f0f4f5"/>
<path d="M14.9456 42.4855L9.21341 44.8599C8.50616 45.1528 8.17035 45.9636 8.46334 46.6707C8.68439 47.2044 9.20038 47.5267 9.74436 47.5267C9.92107 47.5267 10.1008 47.4926 10.2742 47.4208L16.0064 45.0464C16.7137 44.7534 17.0495 43.9426 16.7565 43.2355C16.4634 42.5284 15.6523 42.1929 14.9456 42.4855Z" fill="#f0f4f5"/>
<path d="M22.8993 65.6727C22.1784 65.4157 21.3855 65.791 21.128 66.5119L21.1277 66.5128C20.8703 67.2337 21.2461 68.0263 21.9669 68.2837C22.1209 68.3385 22.278 68.3647 22.4327 68.3647C23.002 68.3647 23.5359 68.0109 23.7384 67.444C23.9958 66.7232 23.6202 65.9302 22.8993 65.6727V65.6727Z" fill="#f0f4f5"/>
<path d="M27.7245 54.2037C27.0174 53.9115 26.2066 54.2466 25.9138 54.9537L23.5394 60.686C23.2464 61.3932 23.5823 62.2039 24.2894 62.4968C24.4628 62.5686 24.6424 62.6027 24.8193 62.6027C25.3631 62.6027 25.8792 62.2805 26.1003 61.7468L28.4747 56.0145C28.7674 55.3074 28.4316 54.4966 27.7245 54.2037Z" fill="#f0f4f5"/>
<path d="M47.4208 60.686L45.0464 54.9537C44.7536 54.2466 43.9428 53.9111 43.2357 54.2037C42.5284 54.4967 42.1926 55.3074 42.4856 56.0145L44.86 61.7468C45.0811 62.2805 45.597 62.6027 46.141 62.6027C46.3177 62.6027 46.4975 62.5686 46.6709 62.4969C47.378 62.2039 47.7138 61.3932 47.4208 60.686Z" fill="#f0f4f5"/>
<path d="M48.0608 65.6727C47.34 65.9302 46.9642 66.7232 47.2217 67.444L47.222 67.445C47.4244 68.0117 47.9577 68.3649 48.5269 68.3649C48.6817 68.3649 48.8391 68.3388 48.9933 68.2836C49.7141 68.0263 50.0895 67.2327 49.8322 66.5119C49.5748 65.791 48.7813 65.4154 48.0608 65.6727V65.6727Z" fill="#f0f4f5"/>
<path d="M67.5239 47.2531C66.8204 46.9514 66.0056 47.2775 65.704 47.981C65.4024 48.6845 65.7284 49.4993 66.4319 49.8008L66.4329 49.8013C66.6108 49.8776 66.7958 49.9137 66.9779 49.9137C67.5156 49.9137 68.027 49.5988 68.2522 49.0732C68.5539 48.3694 68.2275 47.5545 67.5239 47.2531Z" fill="#f0f4f5"/>
<path d="M61.7468 44.8599L56.0145 42.4855C55.3074 42.1933 54.4968 42.5286 54.2038 43.2355C53.9108 43.9428 54.2468 44.7534 54.9539 45.0464L60.6861 47.4208C60.8595 47.4926 61.0391 47.5267 61.216 47.5267C61.7598 47.5267 62.2759 47.2044 62.497 46.6707C62.7898 45.9636 62.4539 45.1528 61.7468 44.8599V44.8599Z" fill="#f0f4f5"/>
<path d="M66.9786 23.8195C67.1607 23.8195 67.3459 23.7833 67.524 23.7069L67.5248 23.7065C68.2285 23.4049 68.5539 22.5904 68.2523 21.8869C67.9507 21.1833 67.1354 20.8574 66.432 21.1592C65.7285 21.4607 65.4025 22.2755 65.7041 22.979C65.9293 23.5047 66.4409 23.8195 66.9786 23.8195Z" fill="#f0f4f5"/>
<path d="M60.6861 23.5392L54.9539 25.9136C54.2466 26.2066 53.9108 27.0174 54.2038 27.7245C54.4249 28.2582 54.9409 28.5804 55.4848 28.5804C55.6616 28.5804 55.8413 28.5463 56.0147 28.4745L61.7469 26.1002C62.4542 25.8072 62.79 24.9964 62.497 24.2893C62.2039 23.5823 61.3931 23.2468 60.6861 23.5392V23.5392Z" fill="#f0f4f5"/>
<path d="M43.2357 16.7565C43.4091 16.8283 43.5887 16.8624 43.7655 16.8624C44.3094 16.8624 44.8254 16.5402 45.0465 16.0065L47.4209 10.2742C47.7139 9.56697 47.378 8.75634 46.6709 8.46335C45.964 8.17105 45.1531 8.50631 44.8601 9.21342L42.4857 14.9457C42.1926 15.6528 42.5284 16.4634 43.2357 16.7565Z" fill="#f0f4f5"/>
<path d="M48.0608 5.28749C48.2149 5.34237 48.3722 5.36856 48.5269 5.36856C49.0961 5.36856 49.6298 5.01515 49.8322 4.4483L49.8324 4.44733C50.0898 3.7265 49.7141 2.93389 48.9932 2.67652C48.2726 2.41956 47.4793 2.79515 47.2217 3.51612C46.9642 4.23694 47.34 5.02984 48.0608 5.28749Z" fill="#f0f4f5"/>
<path d="M53.4552 36.866H58.311C59.0765 36.866 59.697 36.2453 59.697 35.48C59.697 34.7147 59.0765 34.0941 58.311 34.0941H53.4552L40.1839 30.7763L36.8661 17.5045V12.649C36.8661 11.8837 36.2456 11.2631 35.4802 11.2631C34.7147 11.2631 34.0942 11.8837 34.0942 12.649V17.5045L30.7763 30.7763L17.5051 34.0941H12.649C11.8836 34.0941 11.2631 34.7147 11.2631 35.48C11.2631 36.2453 11.8836 36.866 12.649 36.866H17.5049L30.7762 40.1838L34.0941 53.4554V58.311C34.0941 59.0764 34.7146 59.697 35.48 59.697C36.2455 59.697 36.866 59.0764 36.866 58.311V53.4554L40.1838 40.1838L53.4552 36.866ZM37.6964 38.7048L35.48 47.5705L33.2637 38.7048C33.1395 38.2084 32.7518 37.8206 32.2552 37.6966L23.3899 35.4802L32.2552 33.2638C32.7518 33.1396 33.1395 32.752 33.2637 32.2555L35.48 23.3899L37.6964 32.2555C37.8206 32.752 38.2082 33.1398 38.7048 33.2638L47.5702 35.4802L38.7048 37.6966C38.2084 37.8206 37.8206 38.2084 37.6964 38.7048Z" fill="#f0f4f5"/>
</g>
<defs>
<clipPath id="clip0">
<rect width="70.96" height="70.96" fill="white"/>
</clipPath>
</defs>
</svg>
